<svg xmlns="http://www.w3.org/2000/svg" width="101.7" height="31" viewBox="0 0 118 40"><g fill="none"><path fill="#76B900" d="M42.048 0v40H0V0h42.048zm72.226 0v40H118V0h-3.726z"></path><path fill="#1E1E1E" d="M114.79 0H42.543v40h72.245zM18.507 25.699v5.757h1.486V25.7h-1.486zm-11.684-.007v5.766h1.499v-4.377h1.161c.385 0 .658.105.843.321.235.275.331.716.331 1.524v2.532h1.452v-3.184c0-2.274-1.324-2.58-2.62-2.58H6.824m14.077.01v5.757h2.409c1.283 0 1.702-.234 2.154-.759.321-.367.527-1.175.527-2.057 0-.81-.175-1.53-.481-1.98-.551-.804-1.343-.962-2.527-.962h-2.084.002zm1.474 1.253h.639c.927 0 1.525.454 1.525 1.636s-.598 1.639-1.525 1.639h-.64v-3.275zm-6.008-1.254l-1.24 4.562-1.188-4.562h-1.603l1.696 5.758h2.14l1.71-5.758h-1.515zm10.317 5.758h1.486v-5.758h-1.486v5.758zm4.163-5.756l-2.075 5.753h1.464l.33-1.017h2.454l.31 1.017h1.59l-2.091-5.753h-1.984.002zm.964 1.05l.9 2.696h-1.827l.927-2.697zM16.543 12.211v-1.384c.124-.01.247-.016.372-.02 3.456-.12 5.724 3.25 5.724 3.25s-2.449 3.722-5.074 3.722c-.378 0-.718-.067-1.022-.177v-4.196c1.345.178 1.616.828 2.424 2.305l1.799-1.661s-1.314-1.886-3.526-1.886c-.24 0-.47.018-.697.045m0-4.57v2.067a6.7 6.7 0 01.372-.025c4.805-.178 7.936 4.315 7.936 4.315s-3.596 4.787-7.342 4.787c-.343 0-.664-.034-.966-.092v1.276c.26.036.527.056.806.056 3.487 0 6.007-1.949 8.45-4.256.405.356 2.062 1.218 2.403 1.596-2.321 2.127-7.73 3.842-10.797 3.842-.296 0-.58-.02-.86-.05v1.794h13.25V7.643h-13.25l-.002-.003zm0 9.96v1.09c-3.223-.63-4.12-4.3-4.12-4.3s1.548-1.877 4.12-2.183v1.198h-.004c-1.349-.178-2.403 1.202-2.403 1.202s.59 2.322 2.41 2.991m-5.728-3.367s1.912-3.088 5.727-3.406v-1.12c-4.227.37-7.886 4.29-7.886 4.29s2.072 6.56 7.886 7.162v-1.191c-4.266-.588-5.727-5.735-5.727-5.735z"></path><path fill="#FFF" d="M52.584 18.378c-2.947 0-4.42-1.682-4.42-5.043v-.575c0-1.072.17-1.987.51-2.75.34-.762.83-1.346 1.466-1.756.638-.407 1.403-.611 2.296-.611h.119c.894 0 1.647.213 2.262.641.615.43 1.059 1.04 1.334 1.838l-1.778.692c-.248-.855-.86-1.283-1.833-1.283h-.094c-.761 0-1.343.273-1.745.818-.403.546-.605 1.339-.605 2.381v.665c0 1.061.198 1.844.599 2.345.398.5 1.021.752 1.872.752h.08c.345 0 .67-.03.981-.087a2.96 2.96 0 00.81-.267v-1.902h-1.992l.225-1.8h3.624v4.75a4.54 4.54 0 01-1.605.891 6.445 6.445 0 01-2.004.301h-.106.004zm5.402-.206V7.85h6.172v1.828h-4.235v2.374h3.439l-.226 1.828h-3.213v2.463h4.314v1.828h-6.253l.002.002zm7.95 0V7.85h6.173v1.828h-4.235v2.64h3.41l-.224 1.829h-3.186v4.026h-1.937zm11.31.206c-.903 0-1.674-.206-2.316-.618-.643-.413-1.133-.999-1.474-1.756-.342-.758-.511-1.657-.511-2.7v-.59c0-1.042.17-1.941.51-2.699.34-.757.832-1.341 1.475-1.756.642-.412 1.413-.619 2.316-.619h.134c.903 0 1.674.207 2.316.619.642.412 1.132.999 1.474 1.756.34.758.511 1.657.511 2.7v.59c0 1.042-.17 1.941-.51 2.699-.34.757-.833 1.341-1.475 1.756-.642.412-1.413.618-2.316.618h-.134zm.013-1.888h.106c.726 0 1.303-.26 1.733-.78.43-.522.644-1.307.644-2.361v-.679c0-1.052-.215-1.84-.644-2.36-.43-.522-1.007-.781-1.733-.781h-.106c-.726 0-1.303.261-1.733.78-.43.522-.644 1.31-.644 2.361v.679c0 1.052.214 1.84.644 2.36.43.522 1.007.781 1.733.781zm5.88 1.682V7.85h3.517c1.08 0 1.935.28 2.57.84.63.562.948 1.338.948 2.332v.28c0 .697-.152 1.288-.459 1.77a2.853 2.853 0 01-1.28 1.091l2.03 4.012h-2.11l-1.832-3.688h-1.447v3.688h-1.937v-.002zm1.937-5.546h1.526c.47 0 .86-.097 1.168-.294.31-.197.465-.526.465-.99v-.368c0-.442-.155-.764-.465-.966-.31-.201-.699-.303-1.168-.303h-1.526v2.921zm10.606 5.752c-1.38 0-2.429-.447-3.146-1.341-.717-.894-1.076-2.143-1.076-3.746v-.575c0-1.042.163-1.941.492-2.699.328-.757.805-1.341 1.435-1.756.628-.412 1.393-.618 2.295-.618h.107c.947 0 1.735.231 2.362.692.628.464 1.07 1.117 1.329 1.963l-1.806.709c-.123-.512-.353-.885-.684-1.122-.331-.236-.731-.354-1.2-.354h-.08c-.726 0-1.293.262-1.7.78-.407.522-.61 1.31-.61 2.361v.665c0 1.091.195 1.89.59 2.398.393.507.967.76 1.718.76h.079c.477 0 .89-.116 1.234-.348.347-.231.588-.602.73-1.114l1.766.767c-.264.815-.717 1.45-1.353 1.902-.638.452-1.428.679-2.377.679h-.107l.002-.003zm5.23-.206V7.85h6.172v1.828h-4.235v2.374h3.439l-.225 1.828h-3.214v2.463h4.314v1.828h-6.25v.002zm-52.34 13.981V21.828h1.726l4.208 6.741v-6.741h1.845v10.325h-1.726l-4.208-6.741v6.741h-1.845zm13.739.207c-.903 0-1.675-.207-2.317-.619-.642-.412-1.132-.998-1.474-1.756-.342-.758-.51-1.657-.51-2.699v-.59c0-1.043.17-1.942.51-2.7.34-.757.832-1.341 1.474-1.756.642-.412 1.414-.618 2.317-.618h.133c.903 0 1.674.206 2.317.618.642.413 1.132.999 1.474 1.756.34.758.51 1.657.51 2.7v.59c0 1.042-.17 1.941-.51 2.699-.342.758-.832 1.341-1.474 1.756-.643.412-1.414.619-2.317.619h-.133zm.012-1.889h.107c.725 0 1.303-.261 1.732-.78.43-.522.645-1.31.645-2.361v-.679c0-1.052-.215-1.84-.645-2.36-.43-.522-1.007-.781-1.732-.781h-.107c-.725 0-1.303.262-1.732.78-.43.522-.645 1.31-.645 2.361v.679c0 1.052.215 1.84.645 2.36.429.522 1.007.781 1.732.781zm5.044-8.643h2.098l1.711 7.212 1.687-7.212h1.779l1.687 7.212 1.712-7.212h1.99l-2.854 10.325H75.36l-1.66-6.931-1.66 6.931h-1.817l-2.855-10.325z"></path></g></svg>