<svg width="24" height="24" viewBox="0 0 24 24" fill="none" xmlns="http://www.w3.org/2000/svg"><path clip-rule="evenodd" d="M11.709 3.824c.23-.467.345-.7.502-.775a.5.5 0 0 1 .43 0c.156.074.272.308.502.775l2.187 4.43c.068.137.102.206.152.26a.502.502 0 0 0 .155.113c.066.03.142.042.294.064l4.892.715c.515.075.772.113.892.239a.5.5 0 0 1 .132.41c-.022.17-.209.353-.582.716l-3.538 3.446c-.11.107-.165.161-.2.225a.5.5 0 0 0-.06.183c-.01.072.004.148.03.3l.835 4.867c.088.514.132.77.05.923a.5.5 0 0 1-.35.253c-.17.032-.4-.09-.861-.332l-4.373-2.3c-.136-.071-.204-.107-.276-.121a.498.498 0 0 0-.192 0c-.072.014-.14.05-.277.121l-4.372 2.3c-.461.242-.692.364-.862.332a.5.5 0 0 1-.348-.253c-.083-.152-.04-.41.049-.922l.835-4.868c.026-.152.039-.228.03-.3a.5.5 0 0 0-.06-.183c-.035-.064-.09-.118-.2-.225L3.585 10.77c-.373-.363-.559-.545-.582-.717a.5.5 0 0 1 .133-.41c.12-.125.377-.163.892-.238l4.891-.715c.152-.022.228-.033.294-.064a.5.5 0 0 0 .156-.113c.05-.054.084-.123.152-.26l2.187-4.43z" stroke="#fff" stroke-width="2" stroke-linecap="round" stroke-linejoin="round"></path></svg>